<?xml version="1.0" encoding="UTF-8" standalone="no"?>
<!-- Created with Inkscape (http://www.inkscape.org/) -->

<svg
   version="1.1"
   id="svg1"
   width="1000"
   height="1000"
   viewBox="0 0 1000 1000"
   xmlns="http://www.w3.org/2000/svg"
   xmlns:svg="http://www.w3.org/2000/svg">
  <defs
     id="defs1" />
  <g
     id="g1">
    <path
       style="fill:#000000"
       d="M 0,500 V 0 h 500 500 v 500 500 H 500 0 Z m 262.29215,126.36933 24.7459,-21.63066 -2.69072,-3.61934 c -1.47989,-1.99063 -2.81965,-3.78803 -2.97724,-3.99422 -0.15759,-0.20618 -3.4858,2.38549 -7.39602,5.75928 -6.19856,5.34819 -7.33794,5.97281 -8.89238,4.87489 C 264.1011,607.06667 258.54306,602.675 252.73048,598 l -10.56833,-8.5 -0.33107,-7.21946 -0.33108,-7.21947 -13,10.08504 -13,10.08504 13.25,-13.37898 13.25,-13.37898 v -19.7366 C 242,537.88147 241.71591,529 241.36869,529 c -0.34722,0 -4.73472,1.41102 -9.75,3.1356 -6.36694,2.18938 -11.70455,3.28431 -17.68767,3.62839 -8.49715,0.48865 -8.59933,0.46613 -12.18895,-2.68559 -13.02093,-11.43253 -3.91251,-30.58593 26.60944,-55.95498 L 242,465.77915 V 444.88958 424 H 264.5 287 V 409.5 395 h -22.56899 -22.56899 l 0.81899,-25.25 C 243.13146,355.8625 243.5,340.675 243.5,336 v -8.5 l -3.09174,-0.30156 c -3.05991,-0.29844 -3.13592,-0.1903 -7.38036,10.5 -9.89227,24.91529 -20.43964,41.88126 -35.00143,56.30156 -5.27626,5.225 -12.82918,11.525 -16.78425,14 l -7.19104,4.5 -0.0256,5.75 L 174,424 h 10.5 10.5 l -0.0349,74.75 c -0.0379,81.09332 -0.32005,86.06084 -5.37962,94.69433 -1.41427,2.41327 -4.37457,5.93121 -6.57844,7.81764 -2.67866,2.29284 -4.00705,4.25277 -4.00705,5.91209 0,2.19088 0.97685,2.85326 8.32345,5.64389 14.82477,5.63124 29.93746,15.69486 42.30053,28.16814 3.78181,3.81552 7.11143,6.95455 7.39914,6.97561 0.28772,0.0211 11.65878,-9.6955 25.26903,-21.59237 z m 333.80507,2.70977 c 17.63139,-14.27235 33.14968,-23.10449 50.55384,-28.77239 L 655,597.58776 V 558.29388 519 l -3.75,0.007 c -11.6164,0.0219 -33.07523,5.66979 -40,10.52785 l -2.25,1.57849 v 34.44663 34.44663 L 580,585.5 551,570.99333 V 545.97761 520.9619 l -2.40131,0.60269 c -3.74768,0.9406 -24.16531,1.02098 -33.84869,0.13324 L 506,520.89567 v 8.99724 8.99724 l 15.5,13.68965 c 8.525,7.5293 15.5,13.82717 15.5,13.99527 0,0.16809 -6.91314,-2.99324 -15.36252,-7.02518 l -15.36253,-7.33081 -0.63747,7.54134 C 505.28686,563.90815 505,568.95218 505,570.96938 c 0,7.08064 -2.86951,14.01236 -8.08239,19.52422 -3.66917,3.87961 -4.91761,5.97062 -4.91761,8.23653 0,3.01703 0.0441,3.04121 6.75,3.70042 16.96796,1.66798 33.25574,5.9915 45.00941,11.94753 7.19371,3.64533 23.13285,14.55691 30.94392,21.18351 6.37287,5.4065 6.4955,5.45865 8.72741,3.71098 1.24504,-0.97491 6.94496,-5.56197 12.66648,-10.19347 z m -198.95113,5.44613 c 9.10178,-8.42664 22.47689,-16.70463 44.10391,-27.29635 L 461,597.55642 v -32.76479 -32.76479 l -3.75,-1.57628 c -5.24754,-2.20576 -35.06311,-12.08223 -39,-12.91883 L 415,516.84109 v 41.07945 C 415,580.51425 414.70182,599 414.33737,599 c -0.36444,0 -13.18944,-5.71432 -28.5,-12.69849 L 358,573.60302 V 542.30151 C 358,523.48107 357.62601,511 357.06205,511 c -4.84571,0 -25.89737,6.61092 -36.6489,11.50897 l -7.08686,3.22855 -0.66251,23.88124 c -0.86092,31.03283 -1.76915,34.95771 -10.26558,44.36224 -3.04311,3.36836 -3.31658,4.10402 -2.33029,6.26869 1.00448,2.20461 2.05295,2.56745 10.37353,3.58999 11.97022,1.47106 24.28164,5.07682 35.8269,10.49299 8.94314,4.19544 32.6078,17.92479 39.73166,23.05081 1.925,1.38514 3.88985,2.54051 4.36634,2.56748 0.47649,0.027 3.52738,-2.41461 6.77975,-5.42573 z M 759.5,617.50719 c 12.65,-10.91134 23.17835,-19.98004 23.39634,-20.15266 0.21798,-0.17263 -0.82401,-2.15795 -2.31555,-4.41181 l -2.71189,-4.09794 -3.18445,2.61669 C 769.26633,595.91358 762.68799,600 760.93908,600 c -2.97621,0 -6.71061,-3.88415 -8.41088,-8.74814 -1.06932,-3.05904 -1.86782,-9.63605 -2.24145,-18.4621 l -0.58039,-13.71025 -11.10318,-7.43199 C 727.17253,543.99635 714.96302,536.84718 709.25,534.46004 L 706,533.10205 v 27.22521 c 0,47.62665 2.53106,56.79284 20.19917,73.1508 6.18503,5.72639 7.29861,6.39446 8.69704,5.21759 C 735.7783,637.95333 746.85,628.41852 759.5,617.50719 Z m 57.91186,12.58308 c 2.54805,-2.60944 3.54948,-4.35548 3.01113,-5.25 -1.59073,-2.64312 -18.94313,-20.82716 -19.88083,-20.83364 C 799.24396,603.99765 792,611.14585 792,612.43587 792,613.4878 812.00335,634 813.02919,634 c 0.3107,0 2.2829,-1.75938 4.38267,-3.90973 z m 13.87277,-13.86971 3.69052,-3.77944 -10.98777,-10.9537 -10.98777,-10.9537 -3.45416,3.48314 -3.45416,3.48314 10.20435,11.16396 c 5.6124,6.14018 10.45053,11.20268 10.75141,11.25 0.30088,0.0473 2.20779,-1.61471 4.23758,-3.6934 z M 750.01311,490.75 l 0.0131,-58.25 8.48688,-9.36532 C 763.1809,417.98375 767,413.65526 767,413.5158 c 0,-0.13946 -8.7772,-8.45072 -19.50489,-18.46947 l -19.50489,-18.21592 -18.74511,17.7644 C 698.9353,404.36523 690.5,412.92703 690.5,413.62103 c 0,0.694 3.4875,5.31955 7.75,10.27899 l 7.75,9.01717 v 45.47845 45.47845 l 11.16719,5.80217 c 6.14196,3.19119 15.70446,8.80669 21.25,12.4789 5.54555,3.6722 10.42031,6.71456 10.83281,6.76079 0.4125,0.0462 0.7559,-26.12845 0.76311,-58.16595 z M 228.3525,524.94226 C 243.26249,519.9583 242,522.45277 242,497.97695 242,486.43963 241.66159,477 241.24798,477 c -0.41362,0 -5.25112,3.82011 -10.75,8.48913 -21.12718,17.93875 -30.26117,32.69315 -24.94128,40.28836 2.36606,3.37802 11.15483,3.056 22.7958,-0.83523 z M 461,516.08655 v -6.91345 l -5.77247,-4.83655 C 447.39031,497.77003 423,475.80333 423,475.3114 c 0,-0.21764 1.9125,0.70464 4.25,2.04951 C 440.55742,485.01729 460.18596,496 460.56218,496 460.80298,496 461,477.3946 461,454.65467 v -41.34533 l -9.25,-2.75002 C 430.89325,404.35862 406.98076,393.6228 391.21559,383.38162 386.65916,380.42173 382.68911,378 382.39324,378 c -0.29587,0 -4.40242,3.18489 -9.12566,7.07754 -15.43413,12.71999 -34.99877,24.35793 -53.01432,31.53535 l -7.24675,2.88711 -0.003,21.17576 -0.003,21.17577 5.29967,-5.67577 c 4.45223,-4.76818 12.36957,-13.9512 19.55234,-22.67801 C 345.32713,424.41574 355.22644,413 355.6269,413 c 0.27012,0 0.29179,0.3375 0.0482,0.75 -0.24365,0.4125 -3.65576,8.31498 -7.58247,17.56107 -8.89305,20.94015 -17.98904,39.16026 -27.64353,55.37251 L 313,499.19236 v 9.01081 c 0,6.83345 0.30205,8.87875 1.25,8.4643 14.23136,-6.22203 27.5365,-10.66696 38,-12.69487 l 5.75,-1.1144 v -41.34041 -41.34041 l 6.12097,1.42792 c 8.5646,1.99799 16.92526,5.45979 35.12903,14.54549 l 15.75,7.86099 v 32.29337 32.29337 l 11.25,3.28009 c 6.1875,1.80406 15.975,4.99979 21.75,7.10163 5.775,2.10185 11.0625,3.86614 11.75,3.92065 0.88902,0.0705 1.25,-1.89739 1.25,-6.81434 z m 164.5,-0.77916 c 4.4,-1.32061 12.8375,-2.89667 18.75,-3.50236 L 655,510.70377 v -35.22089 c 0,-37.04219 -0.72345,-45.58282 -4.88377,-57.65463 -3.47566,-10.08516 -14.54408,-24.77684 -26.33025,-34.94952 l -5.35425,-4.62126 -7.67564,5.79983 c -10.50579,7.93833 -19.55105,12.82832 -30.54248,16.51166 l -9.2864,3.11197 12.2864,10.05024 c 14.88172,12.1732 17.91599,15.29834 21.13582,21.76883 3.38673,6.80587 4.65057,17.28832 4.65057,38.57236 0,9.88155 0.40164,17.92764 0.89491,17.92764 1.30795,0 15.36142,-10.20929 24.60509,-17.87462 4.4,-3.64872 8.89223,-7.30708 9.98274,-8.1297 1.92461,-1.45183 1.93702,-1.42239 0.42332,1.00432 -0.85769,1.375 -7.56022,12.625 -14.89452,25 -7.33431,12.375 -14.04858,23.60335 -14.92061,24.95188 -1.51428,2.34174 -1.49578,2.41381 0.41178,1.60425 1.09851,-0.4662 5.59729,-1.92813 9.99729,-3.24874 z m -82.75,-0.9616 8.25,-0.64222 v -41.77943 c 0,-56.90633 -0.90878,-62.82501 -11.31086,-73.66509 -3.29382,-3.43252 -9.43072,-8.90361 -13.63756,-12.15799 l -7.64878,-5.91703 -9.9514,7.94073 c -10.9201,8.71372 -19.98495,13.73473 -26.3338,14.58629 -2.26468,0.30376 -4.1176,0.72466 -4.1176,0.93534 0,0.21068 5.89194,6.11393 13.0932,13.11833 11.77661,11.45467 13.18001,13.18778 13.95645,17.23528 0.47479,2.475 0.88285,21.22668 0.9068,41.67041 l 0.0435,37.1704 6.75,0.65459 c 3.7125,0.36003 7.2,0.81032 7.75,1.00065 1.73,0.59868 13.66452,0.51808 22.25,-0.15026 z M 613.87098,503.75 c 2.2591,-3.7125 3.86396,-6.75 3.56636,-6.75 -0.29761,0 -2.31429,1.0125 -4.48152,2.25 -3.74545,2.13867 -3.9408,2.49327 -3.94812,7.16667 -0.004,2.70416 0.16409,4.72916 0.37406,4.5 0.20996,-0.22917 2.23011,-3.45417 4.48922,-7.16667 z M 320.93596,470.01992 c 2.79165,-5.13786 4.91808,-9.49921 4.7254,-9.6919 -0.19269,-0.19268 -3.12032,2.76639 -6.50585,6.57571 C 313.42884,473.34727 313,474.16472 313,478.6374 c 0,4.45414 0.10515,4.6575 1.43011,2.76584 0.78656,-1.12297 3.71419,-6.24546 6.50585,-11.38332 z M 730.456,350.75125 l 11.956,-4.25349 11.20801,-19.74888 c 8.20517,-14.45778 10.76218,-19.73874 9.544,-19.71102 -0.91521,0.0208 -7.70861,1.4881 -15.09645,3.26062 l -13.43243,3.22276 -9.81757,20.8624 C 719.4179,345.85797 715,355.44601 715,355.69041 c 0,0.54149 0.49729,0.38258 15.456,-4.93916 z"
       id="path1" />
  </g>
</svg>
